<?xml version="1.0" encoding="utf-8"?>
<!-- Generator: Adobe Illustrator 19.1.0, SVG Export Plug-In . SVG Version: 6.00 Build 0)  -->
<svg version="1.1" id="white" xmlns="http://www.w3.org/2000/svg" xmlns:xlink="http://www.w3.org/1999/xlink" x="0px" y="0px"
	 viewBox="0 0 576 360" enable-background="new 0 0 576 360" xml:space="preserve">
<g>
	<g>
		<g>
			<g>
				<polygon fill="#FFFFFF" points="346.491,45.754 391.006,57.012 181.125,112.477 				"/>
				<polygon fill="#FFFFFF" points="446.212,228.07 488.05,176.828 467.071,176.828 413.629,242.666 413.629,176.828 
					396.709,176.828 396.709,301.791 413.629,301.791 413.629,266.709 434.928,241.213 474.081,301.791 494.157,301.791 				"/>
				<polygon fill="#FFFFFF" points="154.447,157.885 119.124,225.506 82.715,157.885 64.104,157.885 110.572,242.453 
					110.572,301.791 127.706,301.791 127.706,242.445 173.051,157.885 				"/>
				<g>
					<path fill="#FFFFFF" d="M246.895,188.963c-8.609-8.607-19.791-13.154-32.336-13.154c-12.544,0-23.727,4.547-32.334,13.154
						c-11.97,11.973-11.97,24.797-11.97,50.344c0,25.551,0,38.377,11.97,50.346c8.607,8.607,19.79,13.156,32.334,13.156
						c12.545,0,23.726-4.549,32.336-13.156c11.969-11.969,11.969-24.795,11.969-50.346
						C258.864,213.76,258.864,200.936,246.895,188.963z M234.595,279.758c-5.108,5.266-12.413,8.293-20.035,8.293
						c-7.62,0-14.919-3.027-20.034-8.301c-7.194-7.353-8.149-14.789-8.149-40.443s0.955-33.088,8.153-40.445
						c5.108-5.271,12.41-8.295,20.03-8.295c7.622,0,14.927,3.023,20.037,8.299c7.192,7.354,8.151,14.787,8.151,40.441
						S241.789,272.397,234.595,279.758z"/>
				</g>
				<g>
					<path fill="#FFFFFF" d="M339.185,247.412c21.735-3.311,32.068-14.467,32.428-34.912c0.176-9.969-3.025-18.594-9.261-24.941
						c-6.802-6.926-16.951-10.73-28.589-10.73H285.38v124.963h16.919v-53.684h17.842l35.657,53.684h19.956L339.185,247.412z
						 M301.498,233.514v-41.928h31.077c14.355,0,22.921,7.867,22.921,21.049c0,13.275-8.35,20.879-22.921,20.879H301.498z"/>
				</g>
				<polygon fill="#FFFFFF" points="159.448,119.733 356.223,96.665 428.093,119.785 				"/>
				<polygon fill="#FFFFFF" points="389.396,14.713 287.677,3.574 159.371,119.733 				"/>
				<path fill="#FFFFFF" d="M159.448,119.733"/>
			</g>
		</g>
	</g>
	<g>
		<path fill="#FFFFFF" d="M498.178,296.903v-0.033c0-3.186,2.583-5.869,5.835-5.869c3.287,0,5.836,2.649,5.836,5.836v0.034
			c0,3.186-2.583,5.869-5.836,5.869C500.727,302.738,498.178,300.089,498.178,296.903z M509.178,296.869v-0.034
			c0-2.851-2.213-5.198-5.165-5.198c-2.918,0-5.165,2.381-5.165,5.232v0.033c0,2.851,2.213,5.198,5.165,5.198
			C506.931,302.101,509.178,299.72,509.178,296.869z M501.733,293.784h2.683c1.308,0,2.281,0.637,2.281,1.878
			c0,0.973-0.57,1.576-1.375,1.811l1.576,2.247h-1.375l-1.409-2.046h-1.241v2.046h-1.14V293.784z M504.315,296.735
			c0.771,0,1.207-0.402,1.207-0.973c0-0.637-0.436-0.973-1.207-0.973h-1.442v1.945H504.315z"/>
	</g>
</g>
</svg>
