<?xml version="1.0" encoding="utf-8"?>
<!-- Generator: Adobe Illustrator 19.1.0, SVG Export Plug-In . SVG Version: 6.00 Build 0)  -->
<svg version="1.1" id="Full_Color" xmlns="http://www.w3.org/2000/svg" xmlns:xlink="http://www.w3.org/1999/xlink" x="0px" y="0px"
	 viewBox="0 0 576 360" enable-background="new 0 0 576 360" xml:space="preserve">
<g>
	<polygon fill="#FFCF2B" points="342.668,42.004 159.119,119.237 398.218,56.052 	"/>
	<polygon fill="#1F1F1F" points="448.1,228.454 490.254,176.814 469.116,176.814 415.263,243.159 415.263,176.814 398.214,176.814 
		398.214,302.738 415.263,302.738 415.263,267.387 436.722,241.697 476.183,302.738 496.409,302.738 	"/>
	<polygon fill="#1F1F1F" points="154.093,157.727 118.5,225.867 81.813,157.727 63.056,157.727 109.881,242.943 109.881,302.739 
		127.147,302.739 127.147,242.938 172.841,157.727 	"/>
	<g>
		<path fill="#1F1F1F" d="M247.252,189.047c-8.674-8.674-19.942-13.259-32.584-13.259c-12.642,0-23.909,4.585-32.584,13.259
			c-12.062,12.061-12.062,24.984-12.062,50.73c0,25.746,0,38.669,12.062,50.73c8.674,8.674,19.941,13.259,32.584,13.259
			c12.642,0,23.91-4.585,32.584-13.259c12.061-12.061,12.061-24.983,12.061-50.73C259.313,214.031,259.313,201.108,247.252,189.047z
			 M234.855,280.533c-5.149,5.314-12.507,8.361-20.187,8.361c-7.68,0-15.037-3.048-20.19-8.365
			c-7.247-7.409-8.214-14.901-8.214-40.752c0-25.85,0.967-33.344,8.218-40.757c5.148-5.313,12.506-8.36,20.186-8.36
			c7.681,0,15.038,3.047,20.191,8.364c7.247,7.409,8.213,14.902,8.213,40.753C243.072,265.627,242.105,273.12,234.855,280.533z"/>
	</g>
	<g>
		<path fill="#1F1F1F" d="M340.244,247.945c21.91-3.335,32.319-14.581,32.683-35.182c0.177-10.047-3.05-18.737-9.333-25.131
			c-6.854-6.977-17.084-10.817-28.807-10.817h-48.753v125.923h17.048v-54.095h17.977l35.927,54.095h20.11L340.244,247.945z
			 M302.275,233.942v-42.256h31.314c14.463,0,23.097,7.93,23.097,21.214c0,13.373-8.418,21.042-23.097,21.042H302.275z"/>
	</g>
	<polygon fill="#00C081" points="299.542,31.081 159.119,119.237 342.817,42.044 	"/>
	<polygon fill="#BCBEC0" points="159.133,119.284 357.414,96.039 429.84,119.337 	"/>
	<polygon fill="#0076BF" points="410.379,15.597 288.345,2.234 159.057,119.284 299.67,31.128 342.817,42.044 	"/>
	<path fill="none" stroke="#91C464" stroke-miterlimit="10" d="M412.367,14.842"/>
	<path fill="none" stroke="#91C464" stroke-miterlimit="10" d="M159.133,119.284"/>
</g>
<g>
	<path fill="#1F1F1F" d="M498.178,296.903v-0.033c0-3.186,2.583-5.869,5.835-5.869c3.287,0,5.836,2.649,5.836,5.836v0.034
		c0,3.186-2.583,5.869-5.836,5.869C500.727,302.738,498.178,300.089,498.178,296.903z M509.178,296.869v-0.034
		c0-2.851-2.213-5.198-5.165-5.198c-2.918,0-5.165,2.381-5.165,5.232v0.033c0,2.851,2.213,5.198,5.165,5.198
		C506.931,302.101,509.178,299.72,509.178,296.869z M501.733,293.784h2.683c1.308,0,2.281,0.637,2.281,1.878
		c0,0.973-0.57,1.576-1.375,1.811l1.576,2.247h-1.375l-1.409-2.046h-1.241v2.046h-1.14V293.784z M504.315,296.735
		c0.771,0,1.207-0.402,1.207-0.973c0-0.637-0.436-0.973-1.207-0.973h-1.442v1.945H504.315z"/>
</g>
</svg>
