<?xml version="1.0" encoding="UTF-8" standalone="no"?>
<svg width="94" height="41" xmlns="http://www.w3.org/2000/svg">
  <g fill="none">
    <g fill="#e20074">
      <path d="M16.34 28.9035c-.6143 0-1.0969.2194-1.4479.702v-3.2466h-2.1936v.4826h.1755c.4826 0 .658.1755.658.658v6.4933c0 .4827-.0438.9214-.1316 1.404h.6143l.4387-.702c.4826.5265 1.1846.8336 1.9304.8336 1.6672 0 2.5447-1.404 2.5447-3.2905-.0439-1.8866-.9213-3.3344-2.5885-3.3344zm-.2194 6.0107c-1.1846 0-1.36-1.8427-1.36-2.6763 0-.8336.2193-2.6763 1.4039-2.6763 1.0968 0 1.2284 1.8427 1.2284 2.6763-.0438.8775-.1755 2.6763-1.2723 2.6763z"/>
      <path d="m25.3779 29.1229-.702.0439h-1.1407l-.702-.044v.6143l.4388.0439c.1316 0 .2193.0439.307.0877.0878 0 .0878.044.0878.0878v.0877c0 .044-.0438.0878-.0438.1317l-1.2724 3.2027-1.2723-3.0273c-.0439-.0877-.0439-.1754-.0877-.2632v-.1755c0-.0877.0438-.1316.0438-.1316.0439-.0439.1316-.0439.2194-.0439l.5703-.0439v-.6142l-.8335.0439h-1.404l-.8336-.0439v.6142l.351.044c.0877 0 .1755.0438.2632.0877.044.0438.1317.1316.2633.3948l1.9743 4.7822-.2633.6581c-.0877.2633-.2632.5704-.4826.9653-.1755.351-.4387.5264-.7458.5264-.0439 0-.1316 0-.2194-.0877-.0877-.0439-.1755-.0878-.2632-.1755l-.0439.0439h-.3071l-.351 1.0968.0877.0439c.0878.0438.1755.0877.3072.1316.1316.0439.2632.0877.3948.0877.5265 0 .9652-.1755 1.2285-.4387.2632-.3071.4826-.658.702-1.0968l2.413-5.6158c.2194-.5265.3949-.8775.5265-1.0969.1316-.1755.2193-.2632.351-.2632l.4826-.0439Z"/>
      <g>
        <path d="m46.3494 27.4996-2.1937 7.8972h-.5264l-2.2815-7.8095v6.3617c0 .6142.3072.9213.9214.9213h.2193v.5265H39.549v-.5265h.1755c.6142 0 .9214-.3071.9214-.9213v-6.1423c0-.6142-.3072-.9214-.9214-.9214h-.1755v-.5264h2.8957l1.711 6.3177 1.755-6.3177h2.8956v.5264h-.1755c-.6142 0-.9213.3072-.9213.9214v6.1423c0 .6142.3071.9213.9213.9213h.1755v.5265h-3.5976v-.5265h.0877c.6143 0 .9214-.3071.9214-.9213v-6.4494Z"/>
        <path d="M54.7292 32.238c0 1.7987-.9652 3.3343-2.8517 3.3343-1.8427 0-2.808-1.5356-2.808-3.3344s.9653-3.3344 2.808-3.3344c1.8427.0439 2.8517 1.5795 2.8517 3.3344zm-4.124 0c0 1.8426.4387 2.764 1.3161 2.764.8775 0 1.3162-.9214 1.3162-2.764 0-1.8428-.4387-2.7641-1.3162-2.7641-.9213 0-1.3162.9652-1.3162 2.764z"/>
        <path d="M55.7822 27.4996c0-.4826-.1755-.6581-.658-.6581h-.1756v-.5265h2.1937v3.2466c.351-.4387.8336-.702 1.4478-.702 1.6672 0 2.5447 1.404 2.5447 3.2906 0 1.8865-.8775 3.2905-2.5447 3.2905-.7458 0-1.4478-.3071-1.9304-.8336l-.4388.702h-.6142c.0878-.4388.1316-.9214.1316-1.404v-6.4055Zm1.2285 4.7383c0 .8336.1755 2.6763 1.36 2.6763 1.0969 0 1.2285-1.8427 1.2285-2.6763 0-.8336-.0877-2.6763-1.2285-2.6763-1.1407 0-1.36 1.7988-1.36 2.6763z"/>
        <path d="M63.9427 34.2122c0 .4826.1755.6581.658.6581h.2194v.5265H61.749v-.5265h.2194c.4826 0 .658-.1755.658-.658v-3.9048c0-.4826-.1754-.6581-.658-.6581h-.1317v-.5265h2.1498v5.0893z"/>
        <path d="M63.9865 27.0608c0 .4388-.351.8336-.7897.8336h-.0439c-.4826 0-.8335-.351-.8335-.8336 0-.4826.351-.8336.8335-.8336.4827 0 .8336.351.8336.8336z"/>
        <path d="M67.5403 34.2122c0 .4826.1755.6581.6581.6581h.2194v.5265h-3.0712v-.5265h.1755c.4826 0 .6581-.1755.6581-.658v-6.7127c0-.4826-.1755-.6581-.658-.6581h-.1317v-.5265h2.106v7.8972z"/>
        <path d="M70.3482 32.2818c.0439 1.053.0877 2.6763 1.4478 2.6763.8775 0 1.3162-.7459 1.6672-1.4479l.5265.2633c-.5265 1.053-1.1407 1.7988-2.413 1.7988-1.9305 0-2.6763-1.6233-2.6763-3.3344 0-1.6233.7897-3.3344 2.5885-3.3344 1.9304 0 2.5447 1.8427 2.5447 3.3344h-3.6854zm2.2375-.5704c-.0438-1.4917-.3948-2.2375-1.0968-2.2375s-1.0968.7458-1.1407 2.2375z"/>
        <path d="M30.3795 32.3257h-1.7988v-1.7989h1.7988zm-1.7988-5.9668V29.43h.5264v-.0877c0-1.4479.8336-2.3692 2.3692-2.3692h.0878v6.4933c0 .9213-.351 1.2723-1.2724 1.2723h-.2632v.6142h4.6944v-.6142h-.2632c-.9213 0-1.2723-.351-1.2723-1.2723V26.973h.0877c1.5356 0 2.3692.9213 2.3692 2.3692v.0877h.5265v-3.0711zm5.7913 5.9668h1.7988v-1.7989H34.372z"/>
      </g>
    </g>
    <g fill="#46196e">
      <path d="M.721 20.5237C-.4636 24.911.6333 32.0624 9.9783 33.203v-5.4403c-5.923-.4826-8.5114-2.7201-9.2573-7.2391Z"/>
      <path d="M36.3024 15.9609c.0877 2.3252 1.4478 3.8608 3.7731 3.8608 1.36 0 2.6324-.6142 3.1589-1.8427h5.177c-1.009 3.9048-4.6505 5.6158-8.4236 5.6158-5.5281 0-9.2573-3.3343-9.2573-8.994 0-5.1771 4.168-8.9063 9.1256-8.9063 6.0546 0 9.1257 4.5628 8.8625 10.3102H36.3024zm6.8881-3.115c-.0877-1.8866-1.4478-3.466-3.2905-3.466-1.9743 0-3.2466 1.4039-3.5976 3.466z"/>
      <path d="M59.9502 9.687H56.528v7.7217c0 1.36.7897 1.6233 1.9743 1.6233.4387 0 .9652-.0439 1.4478-.0439v4.0803c-1.0091.0438-2.0182.1754-3.0273.1754-4.7383 0-5.9229-1.36-5.9229-5.9667V9.6869h-2.8079V6.0893H51V1h5.572v5.1332h3.422v3.5537z"/>
      <path d="M61.5296 6.1332h5.3965v2.9834h.0438c.8336-2.1498 2.7202-3.2905 5.0894-3.2905.4387 0 .8774.0439 1.3162.1316v5.0454c-.702-.1754-1.3601-.307-2.106-.307-2.764 0-4.168 1.8865-4.168 4.0363v8.3798h-5.5719z"/>
      <path d="M82.0185 5.6067c5.2649 0 8.9502 3.9048 8.9502 8.994 0 5.0894-3.6853 8.9503-8.9502 8.9503-5.2648 0-8.9063-3.8609-8.9063-8.9502 0-5.0893 3.6415-8.994 8.9063-8.994m0 13.6884c2.5886 0 3.3783-2.5446 3.3783-4.6944s-.8336-4.7384-3.3783-4.7384c-2.5885 0-3.3782 2.5886-3.3782 4.7384 0 2.1498.7897 4.6944 3.3782 4.6944"/>
      <path d="M23.5352 5.6506c-2.2814 0-3.9486.9652-5.3087 2.764-.9213-2.062-2.8079-2.764-4.9138-2.764-2.062 0-3.8609 1.0968-4.87 2.8079H8.399V6.1332H3.0024v11.1439c0 2.9834 2.2376 4.7822 5.572 5.1331v-7.59c0-3.466.8336-4.6068 2.8517-4.6068 1.4917 0 2.106 1.2285 2.106 3.2467v9.6521h5.5719v-8.292c0-2.764.2194-4.5629 2.6324-4.5629 1.4478 0 2.3253 1.0968 2.3253 2.8956v9.9593h5.572V12.9775c-.0878-3.2467-.702-7.327-6.0985-7.327"/>
    </g>
  </g>
</svg>
