<svg xmlns="http://www.w3.org/2000/svg" viewBox="0 0 199.24 73.71"><defs><style>.a{fill:#c3002f;}</style></defs><title>TDECU LOG 200 red</title><path class="a" d="M96.15,179.78c1.54,0,1.86-.37,1.86-2V144.55H89.71c-1.27,0-1.72.32-2,1.44l-1.9,7.74-2.76-.37,1.54-11.9H119l1.54,11.9-2.76.37L115.9,146c-.27-1.12-.73-1.44-2-1.44h-8.29V177.8c0,1.6.36,2,1.9,2h4.12V182H92v-2.24Z" transform="translate(-83.06 -140.81)"/><path class="a" d="M170.35,178.92H186.7c1.68,0,2-.21,2.36-1.33l1.81-6.62,2.67.43-1,10.62H156.76v-2.24h4.12c1.54,0,1.86-.37,1.86-2V145.67c0-1.6-.32-2-1.86-2h-4.12v-2.24h34.79v8.81h-2.08l-.82-4.16c-.23-1.23-.63-1.55-1.63-1.55H170.35v14h12.14c1.36,0,1.49-.16,1.72-1.23l.45-2.08,1.63.43v9.18l-1.63.43-.45-2.08c-.23-1.07-.36-1.23-1.72-1.23H170.35Z" transform="translate(-83.06 -140.81)"/><path class="a" d="M267,141.45v2.76a2.55,2.55,0,0,1,.15,1.45v21c0,8.86-5,13.24-13.27,13.24-6.66,0-10.37-3.15-10.37-11.8V145.67c0-1.6.32-2,1.86-2h3.89v-2.24H230v1.35a37.55,37.55,0,0,0-13.27-2c-16.31,0-23.87,8.65-23.87,20.66,0,14.36,9.65,21.19,22,21.19,8.79,0,14.59-3,17.08-4.8l.82-6.14c-6,4.86-9.65,7.85-18.71,7.85-7.07,0-12.73-5-12.73-17.56,0-13.61,5.93-18.63,15.72-18.63,8.38,0,11.55,3.95,12.78,10.73l2.35-.37-.53-10H234c1.54,0,1.86.37,1.86,2v22.26c0,8.22,4.08,14.73,17,14.73,11.33,0,17.17-5.76,17.17-17.93V145.67c0-1.6.27-2,1.81-2h4.08v-2.24Z" transform="translate(-83.06 -140.81)"/><path class="a" d="M140.22,141.45H121.83v12.17h0V177.8c0,1.6-.32,2-1.86,2H116V182h23.6c12.55,0,20.48-6.4,20.48-20.28C160.11,149,152.23,141.45,140.22,141.45Zm-6.52,38.32c-1.36,0-2.81-.32-4.26-.43V143.91c1.45-.11,3.81-.21,6-.21,11.46,0,16.53,5.23,16.53,18C152,176.89,145.8,179.78,133.7,179.78Z" transform="translate(-83.06 -140.81)"/><rect class="a" y="49.12" width="192.89" height="1.5"/><path class="a" d="M83.49,199.75h2L89,205.81l3.48-6.06h2l-4.63,8v6.17H88.12v-6.17Z" transform="translate(-83.06 -140.81)"/><path class="a" d="M109.6,206.84a7.43,7.43,0,0,1-14.86,0,7.43,7.43,0,0,1,14.86,0Zm-1.77,0a5.66,5.66,0,1,0-11.33,0,5.66,5.66,0,1,0,11.33,0Z" transform="translate(-83.06 -140.81)"/><path class="a" d="M113.59,199.75v8.37c0,2.31.7,4.46,3.42,4.46s3.42-2.14,3.42-4.46v-8.37h1.77v9c0,3.12-1.94,5.51-5.19,5.51s-5.19-2.39-5.19-5.51v-9Z" transform="translate(-83.06 -140.81)"/><path class="a" d="M134.22,213.94h-2.14l-4.18-6h-.73v6H125.4V199.75h2.14a7.5,7.5,0,0,1,3.74.66,3.93,3.93,0,0,1,1.86,3.39,3.86,3.86,0,0,1-3.41,4Zm-7.06-7.47h.56c1.81,0,3.76-.34,3.76-2.6s-2.11-2.54-3.86-2.54h-.47Z" transform="translate(-83.06 -140.81)"/><path class="a" d="M152.88,202.46a5.64,5.64,0,0,0-9.35,4.4,5.58,5.58,0,0,0,9.35,4.29v2.09a7.67,7.67,0,0,1-3.73,1,7.34,7.34,0,0,1-7.39-7.32,7.46,7.46,0,0,1,7.54-7.47,6.85,6.85,0,0,1,3.57,1Z" transform="translate(-83.06 -140.81)"/><path class="a" d="M164.56,213.94h-2.14l-4.18-6h-.73v6h-1.77V199.75h2.14a7.5,7.5,0,0,1,3.74.66,3.93,3.93,0,0,1,1.86,3.39,3.86,3.86,0,0,1-3.41,4Zm-7.06-7.47h.56c1.81,0,3.76-.34,3.76-2.6s-2.11-2.54-3.86-2.54h-.47Z" transform="translate(-83.06 -140.81)"/><path class="a" d="M166.7,199.75h7.62v1.62h-5.85v4h5.68V207h-5.68v5.36h5.85v1.62H166.7Z" transform="translate(-83.06 -140.81)"/><path class="a" d="M177.1,199.75H180c4.35,0,8,2.29,8,7s-3.54,7.17-8,7.17H177.1Zm1.77,12.57h.62c3.61,0,6.74-1.35,6.74-5.47s-3.12-5.47-6.74-5.47h-.62Z" transform="translate(-83.06 -140.81)"/><path class="a" d="M192.6,213.94h-1.77V199.75h1.77Z" transform="translate(-83.06 -140.81)"/><path class="a" d="M200.2,213.94h-1.77V201.37h-3.37v-1.62h8.5v1.62H200.2Z" transform="translate(-83.06 -140.81)"/><path class="a" d="M213.42,199.75v8.37c0,2.31.7,4.46,3.42,4.46s3.42-2.14,3.42-4.46v-8.37H222v9c0,3.12-1.94,5.51-5.19,5.51s-5.19-2.39-5.19-5.51v-9Z" transform="translate(-83.06 -140.81)"/><path class="a" d="M225.06,199.07l10.65,11.16V199.75h1.77v14.77l-10.65-11.16v10.57h-1.77Z" transform="translate(-83.06 -140.81)"/><path class="a" d="M242.84,213.94h-1.77V199.75h1.77Z" transform="translate(-83.06 -140.81)"/><path class="a" d="M260.49,206.84a7.43,7.43,0,0,1-14.86,0,7.43,7.43,0,0,1,14.86,0Zm-1.77,0a5.66,5.66,0,1,0-11.33,0,5.66,5.66,0,1,0,11.33,0Z" transform="translate(-83.06 -140.81)"/><path class="a" d="M263.15,199.07l10.65,11.16V199.75h1.77v14.77l-10.65-11.16v10.57h-1.77Z" transform="translate(-83.06 -140.81)"/><path class="a" d="M282.29,143.7a2.36,2.36,0,1,1-2.35-2.3A2.31,2.31,0,0,1,282.29,143.7Zm-4.13,0a1.78,1.78,0,0,0,1.79,1.83,1.76,1.76,0,0,0,1.75-1.82,1.77,1.77,0,1,0-3.54,0Zm1.41,1.2H279v-2.3a4.66,4.66,0,0,1,.88-.07,1.43,1.43,0,0,1,.8.17.64.64,0,0,1,.22.5.59.59,0,0,1-.48.53v0a.68.68,0,0,1,.42.56,1.72,1.72,0,0,0,.17.57h-.57a2,2,0,0,1-.18-.56c0-.25-.18-.36-.48-.36h-.25Zm0-1.3h.25c.29,0,.53-.1.53-.34s-.15-.35-.49-.35a1.29,1.29,0,0,0-.29,0Z" transform="translate(-83.06 -140.81)"/></svg>