<?xml version="1.0" encoding="utf-8"?>
<svg version="1.1" id="united-logo" xmlns="http://www.w3.org/2000/svg" xmlns:xlink="http://www.w3.org/1999/xlink" x="0px"
	 y="0px" viewBox="0 0 250.7 98.2" style="enable-background:new 0 0 250.7 98.2;" xml:space="preserve">
<style type="text/css">
	.logo-color{fill:#3C5DAA;}
	.subtext-color{fill:#618DB4;}
</style>
<g>
	<g>
		<path class="logo-color" d="M52.3,40.9c0,4.9-0.5,9.2-1.6,12.9c-1.1,3.7-2.9,6.7-5.3,9.1c-2.3,2.3-5.1,4-8.2,5.1s-6.8,1.6-11,1.6
			c-4.3,0-8-0.6-11.2-1.7s-5.8-2.8-8-5c-2.5-2.5-4.2-5.5-5.3-9s-1.6-7.9-1.6-13V0.3h9v41.1c0,3.7,0.2,6.6,0.8,8.7
			c0.5,2.1,1.4,4.1,2.5,5.8c1.3,2,3.2,3.5,5.5,4.5s5.1,1.5,8.3,1.5c3.3,0,6-0.5,8.3-1.5s4.1-2.5,5.5-4.5c1.2-1.7,2-3.7,2.5-5.9
			s0.8-5,0.8-8.3V0.3h9L52.3,40.9L52.3,40.9z"/>
		<path class="logo-color" d="M102,68.1h-8.6v-29c0-2.3-0.1-4.5-0.4-6.6c-0.3-2.1-0.8-3.7-1.5-4.8c-0.8-1.3-1.9-2.2-3.3-2.8
			c-1.4-0.6-3.3-0.9-5.6-0.9s-4.8,0.6-7.4,1.7c-2.6,1.2-5,2.6-7.4,4.4v38h-8.6V17.2h8.6v5.6c2.7-2.2,5.5-4,8.3-5.2
			c2.9-1.2,5.8-1.9,8.8-1.9c5.5,0,9.7,1.7,12.6,5s4.3,8.1,4.3,14.3v33.1H102z"/>
		<path class="logo-color" d="M109.8,68.3h8.6V17.4h-8.6V68.3z M109.3,8.9h9.7V0h-9.7V8.9z"/>
		<path class="logo-color" d="M156.6,67.7c-1.6,0.4-3.4,0.8-5.3,1c-1.9,0.3-3.6,0.4-5.1,0.4c-5.2,0-9.2-1.4-11.9-4.2
			c-2.7-2.8-4.1-7.3-4.1-13.4V24.4h-5.8v-7.2h5.8V0.1h8.6v17.1h17.7v7.2h-17.7v23.2c0,2.7,0.1,4.8,0.2,6.3c0.1,1.5,0.5,2.9,1.3,4.2
			c0.7,1.2,1.6,2.1,2.8,2.7c1.2,0.6,3,0.8,5.4,0.8c1.4,0,2.9-0.2,4.4-0.6s2.6-0.7,3.3-1h0.5v7.7H156.6z"/>
		<path class="logo-color" d="M194.5,37c0-4.5-1.2-8-3.4-10.4c-2.2-2.5-5.6-3.7-10.2-3.7c-4.6,0-8.3,1.3-11,4.1c-2.7,2.7-4.3,6.1-4.6,10.1
			L194.5,37L194.5,37z M202.8,43.6h-37.6c0,3.1,0.5,5.9,1.4,8.2c0.9,2.3,2.2,4.2,3.9,5.7c1.6,1.5,3.5,2.6,5.6,3.3
			c2.2,0.7,4.6,1.1,7.2,1.1c3.5,0,7-0.7,10.5-2.1s6-2.7,7.5-4.1h0.5v9.4c-2.9,1.2-5.8,2.2-8.9,3.1c-3,0.8-6.2,1.2-9.5,1.2
			c-8.5,0-15.1-2.3-19.8-6.9c-4.7-4.6-7.1-11.1-7.1-19.5c0-8.3,2.3-14.9,6.8-19.8c4.6-4.9,10.5-7.3,18-7.3c6.9,0,12.2,2,15.9,6
			c3.7,4,5.6,9.7,5.6,17.1L202.8,43.6L202.8,43.6z"/>
		<path class="logo-color" d="M242.1,55.6V26.4c-2.3-1-4.4-1.7-6.2-2.1c-1.8-0.4-3.8-0.6-6-0.6c-4.8,0-8.6,1.7-11.2,5
			c-2.7,3.3-4,8.1-4,14.2c0,6,1,10.6,3.1,13.8c2.1,3.1,5.4,4.7,10,4.7c2.4,0,4.9-0.5,7.4-1.6C237.6,58.7,239.9,57.3,242.1,55.6
			 M250.7,68.1h-8.6v-5.3c-2.5,2.1-5,3.8-7.7,5s-5.6,1.8-8.7,1.8c-6.1,0-10.9-2.3-14.5-7s-5.4-11.2-5.4-19.5c0-4.3,0.6-8.2,1.9-11.5
			c1.2-3.4,2.9-6.3,5-8.6c2.1-2.3,4.5-4.1,7.2-5.3c2.8-1.2,5.6-1.8,8.6-1.8c2.7,0,5.1,0.3,7.1,0.8c2.1,0.6,4.2,1.4,6.5,2.6V0.1h8.6
			V68.1z"/>
	</g>
	<g>
		<polygon class="subtext-color" points="0,86.6 0,98 2.7,98 2.7,93.4 7.1,93.4 7.1,91.3 2.7,91.3 2.7,88.7 7.4,88.7 7.4,86.6 		"/>
		<polygon class="subtext-color" points="20.7,93.2 16.2,93.2 16.2,95.9 21.2,95.9 21.2,98 13.5,98 13.5,86.6 20.9,86.6 20.9,88.7 16.2,88.7 
			16.2,91.1 20.7,91.1 		"/>
		<path class="subtext-color" d="M30.5,96.1c0.2,0,0.6,0,1,0c2.5,0,4.1-1.3,4.1-4c0-2.5-1.5-3.6-3.9-3.6c-0.6,0-1,0.1-1.2,0.1V96.1z
			 M27.8,86.8c1-0.2,2.3-0.3,3.7-0.3c2.3,0,3.8,0.4,5,1.2c1.3,0.9,2.1,2.3,2.1,4.3c0,2.2-0.8,3.7-2,4.6c-1.3,1-3.2,1.5-5.6,1.5
			c-1.4,0-2.5-0.1-3.1-0.2L27.8,86.8L27.8,86.8z"/>
		<polygon class="subtext-color" points="50.8,93.2 46.3,93.2 46.3,95.9 51.3,95.9 51.3,98 43.6,98 43.6,86.6 51,86.6 51,88.7 46.3,88.7 
			46.3,91.1 50.8,91.1 		"/>
		<path class="subtext-color" d="M59.8,91.7h1.1c1.4,0,2.2-0.6,2.2-1.6s-0.8-1.6-2-1.6c-0.7,0-1,0-1.2,0.1L59.8,91.7L59.8,91.7z M57.1,86.8
			c0.9-0.2,2.2-0.3,3.7-0.3c1.8,0,3.1,0.3,3.9,0.9c0.7,0.5,1.1,1.3,1.1,2.4c0,1.4-1.1,2.4-2.1,2.8v0.1c0.8,0.3,1.3,1.1,1.6,2.1
			c0.4,1.3,0.7,2.8,1,3.2h-2.8c-0.2-0.3-0.5-1.3-0.8-2.7s-0.9-1.8-2-1.8h-0.8V98h-2.7L57.1,86.8L57.1,86.8z"/>
		<path class="subtext-color" d="M76.9,93.2l-0.8-2.4c-0.2-0.7-0.4-1.5-0.6-2.2h-0.1c-0.2,0.7-0.4,1.5-0.5,2.2l-0.7,2.4H76.9z M73.9,95.1
			L73.1,98h-2.9l3.7-11.4h3.6L81.3,98h-3l-0.9-2.9H73.9z"/>
		<polygon class="subtext-color" points="85.8,86.6 88.5,86.6 88.5,95.9 93.4,95.9 93.4,98 85.8,98 		"/>
		<path class="subtext-color" d="M113.3,97.7c-0.5,0.2-1.6,0.5-3.1,0.5c-4.2,0-6.4-2.5-6.4-5.8c0-3.9,3-6.1,6.6-6.1c1.4,0,2.5,0.3,3,0.5
			l-0.6,2c-0.5-0.2-1.3-0.4-2.3-0.4c-2.2,0-3.9,1.2-3.9,3.8c0,2.3,1.4,3.7,3.9,3.7c0.8,0,1.7-0.2,2.3-0.4L113.3,97.7z"/>
		<path class="subtext-color" d="M120.3,91.7h1.1c1.4,0,2.2-0.6,2.2-1.6s-0.8-1.6-2-1.6c-0.7,0-1,0-1.2,0.1v3.1H120.3z M117.6,86.8
			c0.9-0.2,2.2-0.3,3.7-0.3c1.8,0,3.1,0.3,3.9,0.9c0.7,0.5,1.1,1.3,1.1,2.4c0,1.4-1.1,2.4-2.1,2.8v0.1c0.8,0.3,1.3,1.1,1.6,2.1
			c0.4,1.3,0.7,2.8,1,3.2H124c-0.2-0.3-0.5-1.3-0.8-2.7s-0.9-1.8-2-1.8h-0.8V98h-2.7L117.6,86.8L117.6,86.8z"/>
		<polygon class="subtext-color" points="138.4,93.2 134,93.2 134,95.9 138.9,95.9 138.9,98 131.2,98 131.2,86.6 138.7,86.6 138.7,88.7 
			134,88.7 134,91.1 138.4,91.1 		"/>
		<path class="subtext-color" d="M146.1,96.1c0.2,0,0.6,0,1,0c2.5,0,4.1-1.3,4.1-4c0-2.5-1.5-3.6-3.9-3.6c-0.6,0-1,0.1-1.2,0.1V96.1
			L146.1,96.1z M143.3,86.8c1-0.2,2.3-0.3,3.7-0.3c2.3,0,3.8,0.4,5,1.2c1.3,0.9,2.1,2.3,2.1,4.3c0,2.2-0.8,3.7-2,4.6
			c-1.3,1-3.2,1.5-5.6,1.5c-1.4,0-2.5-0.1-3.1-0.2V86.8H143.3z"/>
		<rect x="158.1" y="86.6" class="subtext-color" width="2.7" height="11.4"/>
		<polygon class="subtext-color" points="168.1,88.8 164.8,88.8 164.8,86.6 174.1,86.6 174.1,88.8 170.8,88.8 170.8,98 168.1,98 		"/>
		<path class="subtext-color" d="M188.8,86.6v6.6c0,2,0.8,3,2.2,3s2.2-0.9,2.2-3v-6.6h2.7V93c0,3.5-1.9,5.2-5.1,5.2c-3.1,0-4.8-1.6-4.8-5.2
			v-6.4H188.8z"/>
		<path class="subtext-color" d="M201.6,98V86.6h3.2l2.5,4.2c0.7,1.2,1.4,2.6,2,3.9l0,0c-0.2-1.5-0.2-3.1-0.2-4.8v-3.3h2.5V98h-2.9l-2.6-4.4
			c-0.7-1.2-1.5-2.7-2.1-4h-0.1c0.1,1.5,0.1,3.1,0.1,5V98L201.6,98L201.6,98z"/>
		<rect x="217.7" y="86.6" class="subtext-color" width="2.7" height="11.4"/>
		<path class="subtext-color" d="M230.9,96.2c1.9,0,2.9-1.6,2.9-3.9c0-2.1-1-3.8-2.9-3.8s-3,1.7-3,3.9C228,94.5,229.1,96.2,230.9,96.2
			L230.9,96.2z M230.8,98.2c-3.6,0-5.7-2.6-5.7-5.8c0-3.4,2.3-6,5.9-6c3.7,0,5.8,2.6,5.8,5.8C236.8,96,234.4,98.2,230.8,98.2
			L230.8,98.2z"/>
		<path class="subtext-color" d="M240.7,98V86.6h3.2l2.5,4.2c0.7,1.2,1.4,2.6,2,3.9l0,0c-0.2-1.5-0.2-3.1-0.2-4.8v-3.3h2.5V98h-2.9l-2.6-4.4
			c-0.7-1.2-1.5-2.7-2.1-4H243c0.1,1.5,0.1,3.1,0.1,5V98L240.7,98L240.7,98z"/>
	</g>
</g>
</svg>
